<?xml version="1.0" encoding="UTF-8"?><svg id="Layer_2" xmlns="http://www.w3.org/2000/svg" xmlns:xlink="http://www.w3.org/1999/xlink" viewBox="0 0 1440 600"><defs><clipPath id="clippath"><rect x="-.44" y="-.18" width="1440.89" height="600.37" style="fill:none;"/></clipPath><linearGradient id="linear-gradient" x1="-141.73" y1="201.28" x2="326.88" y2="201.28" gradientUnits="userSpaceOnUse"><stop offset="0" stop-color="#1c1cd3"/><stop offset="1" stop-color="#1111c9"/></linearGradient><linearGradient id="linear-gradient-2" x1="-302.1" y1="-84.26" x2="166.51" y2="-84.26" gradientTransform="translate(-6.06 -59.87) rotate(-105.23)" xlink:href="#linear-gradient"/><linearGradient id="linear-gradient-3" x1="620.37" y1="-108.79" x2="533.07" y2="89.24" gradientUnits="userSpaceOnUse"><stop offset="0" stop-color="#1c1cd3"/><stop offset="1" stop-color="#0216d3"/></linearGradient><linearGradient id="linear-gradient-4" x1="695.73" y1="500.68" x2="1164.34" y2="500.68" gradientUnits="userSpaceOnUse"><stop offset="0" stop-color="#1111c9"/><stop offset=".91" stop-color="#1919dd"/></linearGradient><linearGradient id="linear-gradient-5" x1="762.64" y1="-19.36" x2="1231.25" y2="-19.36" gradientUnits="userSpaceOnUse"><stop offset="0" stop-color="#1c1cd3"/><stop offset="1" stop-color="#1616d3"/></linearGradient><linearGradient id="linear-gradient-6" x1="1445.25" y1="482.03" x2="1329.95" y2="27.71" gradientTransform="translate(264.55 1199.32) rotate(-50.44)" gradientUnits="userSpaceOnUse"><stop offset="0" stop-color="#1c1cb9"/><stop offset="1" stop-color="#1c1cd3"/></linearGradient><linearGradient id="linear-gradient-7" x1="454.27" y1="752.76" x2="778.73" y2="521.9" xlink:href="#linear-gradient-4"/><linearGradient id="linear-gradient-8" x1="492.72" y1="248.23" x2="947.28" y2="248.23" xlink:href="#linear-gradient"/></defs><g style="clip-path:url(#clippath);"><circle cx="92.57" cy="201.28" r="234.31" style="fill:url(#linear-gradient);"/><circle cx="382.19" cy="392.37" r="234.31" style="fill:#1919dd;"/><circle cx="-69.56" cy="27.68" r="234.31" style="fill:url(#linear-gradient-2);"/><circle cx="592.06" cy="-44.58" r="234.31" style="fill:url(#linear-gradient-3);"/><circle cx="930.04" cy="500.68" r="234.31" style="fill:url(#linear-gradient-4);"/><circle cx="1138.17" cy="219.92" r="204.57" style="fill:#1919dd;"/><circle cx="996.95" cy="-19.36" r="234.31" style="fill:url(#linear-gradient-5);"/><circle cx="1361.91" cy="300" r="234.31" style="fill:url(#linear-gradient-6);"/><circle cx="1241.51" cy="626.68" r="234.31" style="fill:#1c1cd3;"/><circle cx="54.3" cy="608.58" r="234.31" style="fill:#1111c9;"/><circle cx="616.5" cy="637.33" r="199.09" style="fill:url(#linear-gradient-7);"/><circle cx="430.55" cy="-10.29" r="234.31" style="fill:#1111c9;"/><circle cx="1285.25" cy="-60.92" r="227.28" style="fill:#1111c9;"/><circle cx="720" cy="248.23" r="227.28" style="fill:url(#linear-gradient-8);"/></g></svg>